<mxfile host="app.diagrams.net" modified="2022-06-03T09:21:01.423Z" agent="5.0 (Windows NT 10.0; Win64; x64) AppleWebKit/537.36 (KHTML, like Gecko) Chrome/102.0.5005.63 Safari/537.36 Edg/102.0.1245.30" etag="Sr6fkJWUTvp3u0cuhClx" version="18.2.1" type="github">
  <diagram id="5mmHvfYfOejazv3EZza-" name="Page-1">
    <mxGraphModel dx="870" dy="626" grid="1" gridSize="10" guides="1" tooltips="1" connect="1" arrows="1" fold="1" page="1" pageScale="1" pageWidth="827" pageHeight="1169" math="0" shadow="0">
      <root>
        <mxCell id="0" />
        <mxCell id="1" parent="0" />
        <mxCell id="ZOq5uMk8Qgf5PJLFW93F-7" value="" style="rounded=0;whiteSpace=wrap;html=1;fillColor=none;shadow=0;" vertex="1" parent="1">
          <mxGeometry x="180" y="80" width="530" height="470" as="geometry" />
        </mxCell>
        <mxCell id="ZOq5uMk8Qgf5PJLFW93F-1" value="Direction&lt;br&gt;" style="shape=umlActor;verticalLabelPosition=bottom;verticalAlign=top;html=1;outlineConnect=0;" vertex="1" parent="1">
          <mxGeometry x="80" y="350" width="30" height="60" as="geometry" />
        </mxCell>
        <mxCell id="ZOq5uMk8Qgf5PJLFW93F-2" value="Eleve&lt;br&gt;" style="shape=umlActor;verticalLabelPosition=bottom;verticalAlign=top;html=1;outlineConnect=0;" vertex="1" parent="1">
          <mxGeometry x="80" y="140" width="30" height="60" as="geometry" />
        </mxCell>
        <mxCell id="ZOq5uMk8Qgf5PJLFW93F-3" value="Répondre au questionnaire" style="ellipse;whiteSpace=wrap;html=1;fillColor=none;" vertex="1" parent="1">
          <mxGeometry x="250" y="150" width="120" height="80" as="geometry" />
        </mxCell>
        <mxCell id="ZOq5uMk8Qgf5PJLFW93F-4" value="Enregistrer réponses" style="ellipse;whiteSpace=wrap;html=1;fillColor=none;" vertex="1" parent="1">
          <mxGeometry x="440" y="220" width="120" height="80" as="geometry" />
        </mxCell>
        <mxCell id="ZOq5uMk8Qgf5PJLFW93F-5" value="Modifier informations élèves / Réponses" style="ellipse;whiteSpace=wrap;html=1;fillColor=none;" vertex="1" parent="1">
          <mxGeometry x="414" y="370" width="146" height="90" as="geometry" />
        </mxCell>
        <mxCell id="ZOq5uMk8Qgf5PJLFW93F-6" value="Consultation des questionnaires" style="ellipse;whiteSpace=wrap;html=1;fillColor=none;" vertex="1" parent="1">
          <mxGeometry x="240" y="370" width="120" height="80" as="geometry" />
        </mxCell>
        <mxCell id="ZOq5uMk8Qgf5PJLFW93F-8" value="Text" style="text;html=1;strokeColor=none;fillColor=none;align=center;verticalAlign=middle;whiteSpace=wrap;rounded=0;shadow=0;" vertex="1" parent="1">
          <mxGeometry x="380" y="290" width="60" height="30" as="geometry" />
        </mxCell>
        <mxCell id="ZOq5uMk8Qgf5PJLFW93F-9" value="&lt;b&gt;&lt;font style=&quot;font-size: 18px;&quot;&gt;Opinion&lt;/font&gt;&lt;/b&gt;" style="text;html=1;strokeColor=none;fillColor=none;align=center;verticalAlign=middle;whiteSpace=wrap;rounded=0;shadow=0;" vertex="1" parent="1">
          <mxGeometry x="410" y="80" width="60" height="30" as="geometry" />
        </mxCell>
      </root>
    </mxGraphModel>
  </diagram>
</mxfile>
